<svg xmlns="http://www.w3.org/2000/svg" viewBox="0 0 647.88 396.57"><defs><style>.cls-1{fill:#f0efff;}.cls-2{fill:#d6d3ff;}.cls-3{fill:#fbbebe;}.cls-4{fill:#d8acac;}.cls-5{fill:#f1c0c0;}.cls-6{fill:#6c63ff;}.cls-7{fill:#3f3d56;}.cls-8{fill:#e5aeae;}.cls-9{fill:#fed253;}.cls-10{fill:#be6f72;}</style></defs><g id="Layer_2" data-name="Layer 2"><g id="Illustration"><path class="cls-1" d="M45.88,124c-11.42,5.44-22.4,12.51-30,22.6C9.17,155.46,5.39,166.18,3.08,177c-11.94,56,13,112.47,37.41,164.25,4.54,9.65,9.21,19.49,16.61,27.16,7.95,8.24,18.57,13.45,29.44,17.06,25.58,8.51,53.07,8.95,80,8.6,94.74-1.22,189.71-11.15,284-2.31,24.27,2.28,48.56,5.8,72.9,4.52s49.2-7.81,67.93-23.41c14.49-12.07,24.37-28.71,32.94-45.5,16.11-31.55,28.87-67.36,21.18-101.94-4.31-19.4-14.85-37-27.63-52.2-4.12-4.92-8.53-9.69-11.63-15.31-4.82-8.74-6.14-18.91-7.8-28.75-3.28-19.55-8.35-39.15-18.65-56.1S553.44,42,534.1,37.65c-16-3.62-32.72-.39-49.16-.53-34.74-.31-67.3-15.61-100.66-25.32C334.49-2.68,280.47-4.67,230.89,10.53a215.86,215.86,0,0,0-77.83,42.82,193.66,193.66,0,0,0-30.42,33.09c-6.14,8.5-9.86,20.09-21,22.73C82.34,113.74,64.21,115.28,45.88,124Z"/><path class="cls-2" d="M567.58,199.89a51.88,51.88,0,0,1-13.73,35.16,51.74,51.74,0,0,1,11,32c0,26.67-20.2,48.7-46.35,52.06v10.14a4,4,0,0,1-1.42,3.08,4,4,0,0,1,1.42,3.07V349a4.1,4.1,0,0,1-1.1,2.78,4,4,0,0,1,1.1,2.77V368.2a4.05,4.05,0,0,1-4.06,4.05H500.83a4,4,0,0,1-4.05-4.05V354.56a4,4,0,0,1,1.1-2.77,4.06,4.06,0,0,1-1.1-2.78V335.38a4,4,0,0,1,1.42-3.07,4,4,0,0,1-1.42-3.08V317.48A52.64,52.64,0,0,1,458.27,267,51.9,51.9,0,0,1,472,231.85a51.88,51.88,0,0,1,.17-64.15,53.08,53.08,0,0,1-4.6-6.87L501.12,158l-36-2.2a51.92,51.92,0,0,1,.18-41l47.61,28.59c-.9-.77-29.78-25.42-43.14-36.74A53.45,53.45,0,0,1,514.28,83c29.44,0,53.3,23.51,53.3,52.5a51.77,51.77,0,0,1-11.19,32.18,51.72,51.72,0,0,1,7.35,12.61l-43.63,18,45.93-11A51.5,51.5,0,0,1,567.58,199.89Z"/><path class="cls-2" d="M402.47,276.43A28.86,28.86,0,0,1,394.84,296,28.8,28.8,0,0,1,401,313.75,29.36,29.36,0,0,1,375.2,342.7v5.63a2.24,2.24,0,0,1-.79,1.72,2.19,2.19,0,0,1,.79,1.7v7.58a2.31,2.31,0,0,1-.61,1.55,2.22,2.22,0,0,1,.61,1.54V370a2.26,2.26,0,0,1-2.26,2.25h-7.58a2.25,2.25,0,0,1-2.25-2.25v-7.58a2.22,2.22,0,0,1,.61-1.54,2.26,2.26,0,0,1-.61-1.55v-7.58a2.22,2.22,0,0,1,.79-1.7,2.28,2.28,0,0,1-.79-1.72V341.8a29.27,29.27,0,0,1-21.41-28.05,28.84,28.84,0,0,1,7.63-19.55,28.84,28.84,0,0,1,.09-35.67,28.86,28.86,0,0,1-2.55-3.82l18.65-1.55-20-1.22a28.88,28.88,0,0,1,.1-22.82L372.07,245c-.5-.42-16.55-14.13-24-20.42a29.72,29.72,0,0,1,24.75-13.13,29.41,29.41,0,0,1,29.63,29.18,28.75,28.75,0,0,1-6.22,17.89,29.05,29.05,0,0,1,4.09,7l-24.26,10,25.53-6.09A28.16,28.16,0,0,1,402.47,276.43Z"/><path class="cls-2" d="M320.93,274.46A28.86,28.86,0,0,1,313.3,294a28.8,28.8,0,0,1,6.13,17.77,29.36,29.36,0,0,1-25.77,29v5.63a2.28,2.28,0,0,1-.79,1.72,2.22,2.22,0,0,1,.79,1.7v7.58a2.31,2.31,0,0,1-.61,1.55,2.22,2.22,0,0,1,.61,1.54V368a2.26,2.26,0,0,1-2.26,2.25h-7.58a2.25,2.25,0,0,1-2.25-2.25v-7.58a2.22,2.22,0,0,1,.61-1.54,2.26,2.26,0,0,1-.61-1.55v-7.58a2.19,2.19,0,0,1,.79-1.7,2.24,2.24,0,0,1-.79-1.72v-6.53a29.26,29.26,0,0,1-21.41-28.05,28.79,28.79,0,0,1,7.63-19.55,28.84,28.84,0,0,1,.09-35.67,29.94,29.94,0,0,1-2.56-3.82L284,251.19,264,250a28.88,28.88,0,0,1,.1-22.82L290.53,243c-.5-.43-16.56-14.13-24-20.42a29.72,29.72,0,0,1,54.38,16,28.81,28.81,0,0,1-6.22,17.89,29,29,0,0,1,4.08,7l-24.25,10,25.53-6.09A28.64,28.64,0,0,1,320.93,274.46Z"/><polygon class="cls-3" points="76.57 354.39 334.77 368.37 587.16 359.93 332.86 354.39 76.57 354.39"/><polygon class="cls-4" points="561.38 286.76 446.13 263.69 446.13 251.29 561.38 274.37 561.38 286.76"/><polygon class="cls-5" points="561.38 284.76 446.13 261.69 446.13 249.29 561.38 272.37 561.38 284.76"/><polygon class="cls-4" points="438.74 262.62 330.88 241.02 330.88 229.42 438.74 251.02 438.74 262.62"/><polygon class="cls-5" points="438.74 260.75 330.88 239.15 330.88 227.55 438.74 249.15 438.74 260.75"/><polygon class="cls-5" points="573.12 359.93 569.36 359.93 564.5 229.43 343.4 155.14 343.73 144.85 567.41 222.65 573.12 359.93"/><polygon class="cls-4" points="342.77 368.37 332.69 368.37 335.36 152.1 335.36 143 212.03 15.03 218.16 15.03 343.73 144.85 342.77 368.37"/><polygon class="cls-4" points="587.16 370.21 334.77 392.72 334.77 368.37 587.16 359.93 587.16 370.21"/><polygon class="cls-4" points="76.57 364.68 334.77 392.72 334.77 368.37 76.57 354.39 76.57 364.68"/><polygon class="cls-4" points="214.67 20.04 106.37 199.44 98.13 355.58 105.63 356 115.67 199.58 217.62 29.91 214.67 20.04"/><polygon class="cls-5" points="335.36 143 332.69 368.37 323.19 367.71 326.56 149.24 212.03 27.19 108.02 197.2 98.13 355.58 91.92 355.22 103.73 194.43 212.03 15.03 335.36 143"/><polygon class="cls-4" points="343.4 155.14 441.32 188.04 440.89 359.93 431.1 359 428.52 186.92 341.69 158.43 343.4 155.14"/><polygon class="cls-5" points="441.32 188.04 445.94 189.59 447.05 359.93 440.89 359.93 441.32 188.04"/><polygon class="cls-4" points="424.19 185.49 559.4 230.83 562.96 359.93 569.36 359.93 564.5 229.43 424.19 182.28 424.19 185.49"/><path class="cls-6" d="M255.13,334.88c-1.15,1.7-1.23,5.41,0,6.81.16,4.26.41,8.78,2,9.92s6.49,2.88,8.37-1.14-1.1-7.72-1.39-9.93,1.07-4.51-.74-5.66S255.13,334.88,255.13,334.88Z"/><path class="cls-7" d="M283.15,231.81a3.31,3.31,0,0,1-.68,1,6.71,6.71,0,0,1-3.17,2.25c-2,.53-4.11-.53-5.94-1.56l-4-2.24a8.6,8.6,0,0,0-3.95-1.43,5.3,5.3,0,0,0-.57,0,4.87,4.87,0,0,0-1.08.26c.07,1.77.3,3.57.48,5.28.55,5.46,1.32,10.89,2.09,16.31.09.59.17,1.18.25,1.77l1.65,11.61a1.13,1.13,0,0,1-.05.73c-.11.21-.35.33-.5.52a1.34,1.34,0,0,0-.24.85,1.93,1.93,0,0,0,0,.24c0,.28,0,.55,0,.83a17.43,17.43,0,0,1,.91,4.65c.19,3.06-1.18,6.13-.85,9.11s1.56,5.15,1,8.35a57.53,57.53,0,0,0-.66,9.63c0,3.89-.93,7.64-.91,11.55a53.24,53.24,0,0,1-1.22,9.5c-.55,3.29.65,6.06.52,9.27-.1,2.58-1.73,4.56-2.19,7-.86,4.53-6.95,4.45-9.14,1.19-2.31-3.44-1.38-7.48-1.51-11.39-.16-4.86-1-9.67-1.36-14.51-.42-5.21.44-10.37,0-15.56,0-.17,0-.35,0-.53a62.48,62.48,0,0,0-.72,10.67c.57,9.82.26,19.71.65,29.58a15.31,15.31,0,0,1,1.33,4.17,43.35,43.35,0,0,1,.38,5.28c-.13.13-1.8-1.48-3.31-2.43s-5.29.9-6.56.78-1.72,1.25-2.17-.78a6.62,6.62,0,0,0-.83-1.9,5.38,5.38,0,0,1-.79-1.57,71.26,71.26,0,0,1-3.7-21.89c-.08-7.57-3-14.64-3.87-22.13-.44-3.93,0-7.77.2-11.69s-.59-7.68-.75-11.66a68.75,68.75,0,0,0-.94-10.42,45.14,45.14,0,0,1-.84-8.93v-.31a10.72,10.72,0,0,1-.62-1.33c-.84-2.25-.93-4.69-1.39-7.05-1.16-5.88-4.58-11-6.9-16.55-1.07-2.57-1.83-5.77-.32-8a3.77,3.77,0,0,1,.31-.42,10.29,10.29,0,0,1,2.55-1.92,29.31,29.31,0,0,0,3.11-2.22c.41-.32.8-.66,1.19-1s.77-.7,1.14-1.06a7.55,7.55,0,0,1,2.51-1.93,1.68,1.68,0,0,1,.32-.09c1.28-.27,2.72.6,4.16,1.2a6,6,0,0,0,1.71.51,3.55,3.55,0,0,0,.46,0,7.44,7.44,0,0,0,6.23-3.57c.47-.82,1-1.88,2-1.78h0a2.32,2.32,0,0,1,.85.35c4.24,2.25,9.89-.18,14.06,2.2a13.72,13.72,0,0,0,1.67.94c.24.1.5.16.75.24a2.88,2.88,0,0,1,.56.2,6.32,6.32,0,0,1,1.36,1,14.65,14.65,0,0,0,9.34,3.55,3.19,3.19,0,0,1,1.54.24,2.88,2.88,0,0,1,.93,1c2.45,3.83,5,7.82,5.57,12.33A3.41,3.41,0,0,1,283.15,231.81Z"/><path class="cls-7" d="M237.93,213.42a6,6,0,0,1-1.71-.51A9.82,9.82,0,0,1,237.93,213.42Z"/><polygon class="cls-5" points="303.49 192.31 304.1 197.36 213.09 217.26 213.09 214.84 303.49 192.31"/><polygon class="cls-4" points="303.49 192.31 325.9 191.7 325.9 196.37 304.1 197.36 303.49 192.31"/><polygon class="cls-8" points="304.05 196.97 325.9 196.37 223.31 217.73 213.09 217.26 304.05 196.97"/><path class="cls-7" d="M229,202.94a1.72,1.72,0,0,0-.31-.4l-.13-.12h0v0h0a2.6,2.6,0,0,0-.05-.39,1.15,1.15,0,0,0-.21-.43l0-.15a1.72,1.72,0,0,0,0-.5,1.93,1.93,0,0,0-.19-.47l0,0,0-.11c-.13-.52-.18-1.06-.26-1.59a1.4,1.4,0,0,0-2.75-.3,1.22,1.22,0,0,0-.07.17,1.33,1.33,0,0,0-.07.45,1.23,1.23,0,0,0,.59,1,1.37,1.37,0,0,0,.52.16c0,.19.05.38.09.57l.06.24a2.83,2.83,0,0,0,.17.42,2.24,2.24,0,0,1,0,.25,1.4,1.4,0,0,0,.21.85.48.48,0,0,0,.09.11,2,2,0,0,0,.27.82,2.32,2.32,0,0,0,.3.4h0a.91.91,0,0,0,.46.72,1,1,0,0,0,1.37-.36A1.3,1.3,0,0,0,229,202.94Z"/><path class="cls-7" d="M246.24,197.19a1.8,1.8,0,0,1-.35-.38l0,0-.16-.26-.11-.19,0-.12a2.07,2.07,0,0,1-.13-.4s0-.07,0-.11a.56.56,0,0,1,0-.13v.05a3.07,3.07,0,0,0,.06-.53,1.4,1.4,0,0,0-.27-.76,1.47,1.47,0,0,0,.06-.14,1.36,1.36,0,0,0-.33-1.32,1.54,1.54,0,0,0-1-.44l-.23,0a1,1,0,0,0-1.33.38,1,1,0,0,0,.36,1.36,1.49,1.49,0,0,0,.39.17,1.84,1.84,0,0,0,0,.33,1.23,1.23,0,0,0,.38.8,1.61,1.61,0,0,0,0,.38,3.78,3.78,0,0,0,.26,1,5,5,0,0,0,1.15,1.73,1,1,0,0,0,1.42-1.41Z"/><path class="cls-3" d="M245.72,209.4a31.19,31.19,0,0,0-1.57-4.35,3.86,3.86,0,0,1,.06-.49c.09-.31.17-.62.25-.94a7.65,7.65,0,0,0,.47-2.28c0-.26,0-.51,0-.77.17-3.43-.75-7-3.92-8.64a8.92,8.92,0,0,0-5.23-.94,3.27,3.27,0,0,0-1.84-.12,6.78,6.78,0,0,0-4.36,2.51,14.18,14.18,0,0,0-1.81,1.75,3,3,0,0,0-.42,3.43,6.48,6.48,0,0,0,.58,2.49,9,9,0,0,0,2.33,5.16,14.63,14.63,0,0,1,3.37,4.59c.45,1,1,2.83,1.79,3.64C239.05,218,246.4,214.33,245.72,209.4Z"/><path class="cls-9" d="M244,192.15c-1-2.22-2.09-4.45-4.11-5.92a10.12,10.12,0,0,0-7.4-2,5.81,5.81,0,0,0-1.54.51.87.87,0,0,0-.91.06c-4.48,2.87-5.53,8.3-4.8,13.24a1,1,0,0,0,1,.74,10.7,10.7,0,0,0,4.51-.9c1.43-.46,2.9-.8,4.34-1.22a66.68,66.68,0,0,0,8.58-3.14A1,1,0,0,0,244,192.15Z"/><path class="cls-6" d="M268.2,265.84c-.11.21-.35.33-.5.52a1.34,1.34,0,0,0-.24.85,6,6,0,0,1-3.77.53,3.88,3.88,0,0,1-1-.3c-1,0-1.89.06-2.77,0h0l-.57,0a13.59,13.59,0,0,1-3.89-.62,8.17,8.17,0,0,1-5.41-5.29,28.29,28.29,0,0,0-.16,5.54c.34,4.57-5.58,6.25-8.53,3.54-4.09-3.76-5.9-8.73-8.79-13.32q-1.16-1.85-2.37-3.7v-.31a10.72,10.72,0,0,1-.62-1.33c-.84-2.25-.93-4.69-1.39-7.05-1.16-5.88-4.58-11-6.9-16.55-1.07-2.57-1.83-5.77-.32-8a3.77,3.77,0,0,1,.31-.42,10.29,10.29,0,0,1,2.55-1.92,29.31,29.31,0,0,0,3.11-2.22c.41-.32.8-.66,1.19-1s.77-.7,1.14-1.06a7.55,7.55,0,0,1,2.51-1.93,1.68,1.68,0,0,1,.32-.09,9.76,9.76,0,0,1,2.6,1.6,16.51,16.51,0,0,1,2.4,2.93c.25.35.48.72.75,1.07,0-.07.68.58.24.28,1.12.76,1.92,3.23,2,3.31a3.54,3.54,0,0,1-.91,5.13c-1.51,1.2-3.53,1.32-6.52-.52-1.26-.77-4.08-2.16-5.32-3a21,21,0,0,0-3.14-1.59,9.25,9.25,0,0,1-1.2-.55,6.13,6.13,0,0,0-.12,3.85,26,26,0,0,0,2.51,6,28.74,28.74,0,0,0,3.7,5.08c1,1.79,1.83,3,2.85,3.46s4.35,1.66,6.06,1.27c1.9-.77,4-2.29,4.22-3,.8-2.56,1.58-3.09,1.9-4.89a8.06,8.06,0,0,0,.13-1.12c.17-3.8.24-7.13.39-10.8,0-.52,0-1,.07-1.59a37.75,37.75,0,0,1,2-10.51h0a2.32,2.32,0,0,1,.85.35c4.24,2.25,9.89-.18,14.06,2.2a13.72,13.72,0,0,0,1.67.94c.24.1.5.16.75.24,0,.76,0,1.51-.08,2.24-.33,5.46.54,10.44,1,15.81a4.87,4.87,0,0,0-1.08.26c.07,1.77.3,3.57.48,5.28.55,5.46,1.32,10.89,2.09,16.31.09.59.17,1.18.25,1.77l1.65,11.61A1.13,1.13,0,0,1,268.2,265.84Z"/><path class="cls-10" d="M275.44,217.89a4.48,4.48,0,0,1-1,1.47,5.79,5.79,0,0,1-2.79,2c-1.34.26-1.95-1.67-2.45-2.57-.64-1.16-1.31-2.31-1.91-3.49a13.19,13.19,0,0,1-1.73-6.4l7.48-1.56a6.56,6.56,0,0,1,.11,1.86,11.08,11.08,0,0,0,.13,3.81,12,12,0,0,0,1.66,3.19A1.88,1.88,0,0,1,275.44,217.89Z"/><path class="cls-3" d="M259.16,207a13.3,13.3,0,0,1-2.8.54c-.28-1.61.84-2.68,1.62-4.13.51-.95,1.89-2.31,1.22-3.47s-2.24-.74-3.11-.35a6.7,6.7,0,0,0-2.89,2.81,10.17,10.17,0,0,0-1.34,4.18,11.2,11.2,0,0,1-.35,2.57,8.88,8.88,0,0,0-.58,2.09,14.56,14.56,0,0,1-.15,2.38,7.84,7.84,0,0,1-1.13,2.28,27.71,27.71,0,0,1-3.28,4,9.46,9.46,0,0,0-1.66,2c-.14.95,1.16,1.61,1.82,2.27a4.07,4.07,0,0,0,1.15.77,5.68,5.68,0,0,0,1.32.73c1.12.25,1.77-1.14,2.31-1.86,1.7-2.32,3.49-4.59,5-7,1.39-2.26,1.73-5.32,3.49-7.32C260.48,208.7,260.15,206.81,259.16,207Z"/><path class="cls-7" d="M249.84,225.58s-5.47,6.29-5.66,6.56a2.25,2.25,0,0,1-.52-.23,8.06,8.06,0,0,0,.13-1.12c.17-3.8.24-7.13.39-10.8a10.66,10.66,0,0,0,2.28,3.7A8,8,0,0,0,249.84,225.58Z"/><path class="cls-6" d="M242.08,344.81s1.7,1.36-.34,3.59-4.78,6-4.78,6h12.49s.19-.38,1.59-1,2.68-.57,2.74-1.91.62-4.85,0-5.93-5.88-3.94-7.86-3.43A9.29,9.29,0,0,0,242.08,344.81Z"/><path class="cls-7" d="M167.55,225.73s10.85-3.61,16.5-1.45-2.23,28.91-2.23,28.91Z"/><path class="cls-7" d="M161.59,239.49l-.4-7.69c-.07-1.34-2.16-2.24-2.8-.76a27.68,27.68,0,0,1-3.52,5.71,1.48,1.48,0,0,0-1.56.65q-3.9,5.86-7.48,11.93c-1.16,2-2.32,3.95-3.39,6a16.72,16.72,0,0,0-1.52,3.68c-.47.69-.95,1.38-1.43,2.06-1.25,1.78-2.74,3.52-3.49,5.58a5.75,5.75,0,0,0,.37,5,1.6,1.6,0,0,0,.24,2.39c1.28.91,3.6,2.52,5.29,2.06a5.34,5.34,0,0,0,1.93-1.48,24.85,24.85,0,0,1,2.37-2,40.63,40.63,0,0,0,4.38-3.09,9.17,9.17,0,0,0,2.45-4.82,17.89,17.89,0,0,1,1.54-4.86,34.8,34.8,0,0,1,2.83-4.21c2-2.7,3.92-5.48,4.33-8.9A43.32,43.32,0,0,0,161.59,239.49Z"/><path class="cls-6" d="M167,344.93v4.63s-5.94,1-6.53,4.83h18.33a4.31,4.31,0,0,0,.52-4,20.29,20.29,0,0,0-1.85-4.14Z"/><path class="cls-6" d="M190.92,329.27c1,3.06.6,8.81,3.07,11.05s7.43,1.67,7.5-4-3.63-8.27-4.42-12.44S190.92,329.27,190.92,329.27Z"/><path class="cls-7" d="M201.84,315.13a7.92,7.92,0,0,0,.46-3.74c-.26-2.69-1-5.1-.75-7.84a49,49,0,0,0,.22-8.3,73.53,73.53,0,0,1-.26-8.26c.15-2.63.66-5.25-.36-7.78a21.89,21.89,0,0,0-1.7-3.16,41.84,41.84,0,0,0-2.23-3.62c-.95-1.24-2.15-1.2-3.59-1.08-1.64.14-3.27.29-4.91.46-2.59.26-5.17.58-7.75.91,0-.19,0-.37.05-.56.11-1.07-1.05-1.58-1.9-1.45l-15.56,2.5a1.19,1.19,0,0,0-1.54,1,90.18,90.18,0,0,0-.33,17.92c.17,2.91.41,5.83.49,8.75a63.53,63.53,0,0,1-.81,8.7c-.32,2.84.52,5.54.73,8.35s-.33,5.71-.46,8.57a57.89,57.89,0,0,0,.66,8.41c0,.28,0,.55.07.82,0,.7,0,1.39.08,2.07,0,.42,0,.84,0,1.26-.11,1.25-.57,2.45-.58,3.7,0,3.39,3.3,3.48,5.86,3.81,3.06.4,6.56.44,9.33,1.91a1.51,1.51,0,0,0,2.2-1.69,7.92,7.92,0,0,1-.54-2.29l0,0c.35-.74,1.21-1.08,1.66-1.77a5.75,5.75,0,0,0,.62-3.32,21.61,21.61,0,0,0-.88-7.25c-.82-2.33-2.11-4.41-2.77-6.81s-1.43-4.85-1.09-7.32c.17-1.23.49-2.44.65-3.67s0-2.65.27-3.92.75-2.14.88-3.31a29.71,29.71,0,0,0-.06-3.89c-.07-4,1.66-7.65,2.77-11.42l0,0a12.35,12.35,0,0,1,1,1.11c.17.47.34.94.48,1.42a39,39,0,0,1,1.2,5.15c-.23,3.9-1.25,7.8.43,11.54a8.28,8.28,0,0,0,1.34,2l.48,1.95a11.59,11.59,0,0,0-.28,1.75,20.79,20.79,0,0,0,1.51,8,12,12,0,0,0,1.32,2.95c.65.92,1.51,1.57,2.12,2.51,1.29,2,4.47.44,6.08-.38a7.08,7.08,0,0,0,4-5.06,9,9,0,0,0-.4-3.56c-.3-1.19-.63-2.24,0-3.36A20.53,20.53,0,0,0,201.84,315.13Z"/><path class="cls-6" d="M198.58,268.12a17.06,17.06,0,0,1,.22-4.1A136.83,136.83,0,0,0,200,247.1a4.79,4.79,0,0,0-1-2.18c-.59-1-1.17-2-1.75-2.95a40.77,40.77,0,0,0-3.83-5.81c-1.49-1.74-3.15-3.31-4.55-5.13a43.82,43.82,0,0,1-3.64-5.68.92.92,0,0,0-1.41-.28.77.77,0,0,0-.59.68,108,108,0,0,1-4.64,17.39c-.1.33-.22.66-.34,1-.51-1.35-1.07-2.68-1.69-4-1.23-2.61-2.87-5-4.13-7.58s-2-5.33-3.49-7.81a1,1,0,0,0-1.66-.05.89.89,0,0,0-.22,0,21.86,21.86,0,0,0-5.73,3,6,6,0,0,0-2.08,1.92,4.13,4.13,0,0,0,.12,2.48,63.33,63.33,0,0,1,1.51,15.22,6.3,6.3,0,0,1-1,3.07,6.26,6.26,0,0,0-1,2.58,13.72,13.72,0,0,0,.38,3.43c.2,1.25.36,2.52.49,3.79.26,2.47.42,5,.56,7.44s.38,5-.35,7.45a1,1,0,0,0,1,1.27l6.17.76a17.21,17.21,0,0,0,5.21.21,11.93,11.93,0,0,0,7.32-3.78,3.62,3.62,0,0,0,1.06,2c1.48,1.41,4.19,1.2,6.06,1.36l7.39.63c1.59.13,3.62.44,4.81-.91s.45-3.9.16-5.5C199,270.16,198.69,269.15,198.58,268.12Z"/><polygon class="cls-8" points="220.89 269.63 220.89 274.14 245.43 274.14 246.3 269.03 228.59 266.19 220.89 269.63"/><path class="cls-4" d="M221.89,267.16s-1,7.43-1,7-62-77.77-62-77.77V194Z"/><polygon class="cls-5" points="187.03 229.02 220.89 269.63 246.3 269.03 213.09 235.36 204.8 226.37 171.97 193.95 158.93 193.95 187.03 229.02"/><path class="cls-3" d="M199.33,224.52a13.6,13.6,0,0,1-.58-1.62,1.89,1.89,0,0,0-.33-.5A1.43,1.43,0,0,0,197,221a23.71,23.71,0,0,0-6.22.76c-1.86.48-4,1.12-5.4,2.55s-2.07,4.34,0,5.52c1,.58,2.17.18,3.21-.08s2.07-.52,3.1-.81c2.28-.65,4.54-1.37,6.77-2.18A1.52,1.52,0,0,0,199.33,224.52Z"/><path class="cls-7" d="M199.53,226.62c-.45-.32-.19-4.43-1.94-5.66,2.06-4,5.42-1.14,7.65,0s7.46,3.78,9.39,4.77,4.5,5.47,1.7,7.9-3.24,1.73-3.24,1.73l-8-7.54a2.53,2.53,0,0,1-2.74.17C200.81,227.17,199.53,226.62,199.53,226.62Z"/><path class="cls-7" d="M166,218.8a1.72,1.72,0,0,0-.31-.4l-.13-.11h0c0-.13,0-.27,0-.39a1.32,1.32,0,0,0-.21-.43.77.77,0,0,1,0-.15,1.67,1.67,0,0,0,0-.5,1.78,1.78,0,0,0-.19-.48l0,0,0-.12c-.12-.51-.18-1.06-.26-1.58a4.42,4.42,0,0,0-2-1.2,1,1,0,0,0-.72.89c0,.06,0,.11-.07.17a1.17,1.17,0,0,0-.06.45,1.2,1.2,0,0,0,.59,1,1.32,1.32,0,0,0,.51.16l.09.57a1.82,1.82,0,0,0,.07.25,1.87,1.87,0,0,0,.16.41,1.42,1.42,0,0,1,0,.25,1.43,1.43,0,0,0,.21.86l.09.11a2,2,0,0,0,.27.82,2.25,2.25,0,0,0,.3.39l0,0a.89.89,0,0,0,.45.72,1,1,0,0,0,1.37-.36A1.32,1.32,0,0,0,166,218.8Z"/><path class="cls-7" d="M183.22,213.05a1.75,1.75,0,0,1-.35-.37s0,0,0,0-.11-.17-.16-.25l-.1-.2-.06-.11a3.24,3.24,0,0,1-.13-.41s0-.07,0-.1v-.08a3.31,3.31,0,0,0,.06-.54,1.33,1.33,0,0,0-.27-.76.84.84,0,0,0,.06-.14,1.39,1.39,0,0,0-.32-1.32,1.62,1.62,0,0,0-1.05-.43l-.22,0a1,1,0,0,0-1.34.37,1,1,0,0,0,.36,1.37.31.31,0,0,1,.36.49,1.21,1.21,0,0,0,.38.8,2.41,2.41,0,0,0,0,.38,3.78,3.78,0,0,0,.26,1,5,5,0,0,0,1.16,1.74,1,1,0,0,0,1.41,0A1,1,0,0,0,183.22,213.05Z"/><path class="cls-3" d="M182.71,225.26a32.3,32.3,0,0,0-1.58-4.35,2.89,2.89,0,0,1,.07-.49c.08-.3.17-.62.24-.94a7.85,7.85,0,0,0,.48-2.27c0-.26,0-.52,0-.77.17-3.43-.75-7-3.92-8.65a9.08,9.08,0,0,0-5.23-.94,3.46,3.46,0,0,0-1.84-.12,6.77,6.77,0,0,0-4.36,2.52,14.15,14.15,0,0,0-1.81,1.75,3,3,0,0,0-.42,3.42,6.87,6.87,0,0,0,.58,2.49,9,9,0,0,0,2.33,5.16,14.87,14.87,0,0,1,3.37,4.59c.45,1,1,2.84,1.79,3.64C176,233.82,183.38,230.19,182.71,225.26Z"/><path class="cls-9" d="M181,208c-1-2.22-2.1-4.44-4.12-5.91a10.13,10.13,0,0,0-7.4-2,6.19,6.19,0,0,0-1.54.51.87.87,0,0,0-.91.06c-4.48,2.87-5.53,8.3-4.8,13.25a1,1,0,0,0,1,.73,10.52,10.52,0,0,0,4.51-.9c1.43-.45,2.9-.8,4.34-1.21a66.87,66.87,0,0,0,8.59-3.15A1,1,0,0,0,181,208Z"/><path class="cls-3" d="M140.47,273.18c.05-.08.1-.16.16-.24.75-1.23-.81-2.94-2.06-2.06a12.25,12.25,0,0,0-1.54,1.33,1,1,0,0,0-.61.21c-2.67,1.93-3.3,5.38-3.85,8.45-.6,3.38-.48,7.53,3.28,8.93A1.51,1.51,0,0,0,137.7,288a10.63,10.63,0,0,1-.39-4,4.7,4.7,0,0,1,.21-.9c0,.22.07.43.1.62.29,1.65,3.09,1.29,2.95-.4a17.83,17.83,0,0,1,0-5.26C141,276.4,142.14,274.45,140.47,273.18Z"/></g></g></svg>